# xmcd
#
# Track frame offsets:
#	150
#	32775
#	51069
#	71377
#	104314
#	133239
#	168575
#
# Disc length: 2537 seconds
#
# Revision: 1
# Processed by: cddbd v1.5.2PL0 Copyright (c) Steve Scherf et al.
# Submitted via: audiograbber 1.83.01
#
DISCID=5e09e707
DTITLE=Grateful Dead - 85-06-15 Greek Theatre, Berkeley CA
DYEAR=1900
DGENRE=
TTITLE0=Space
TTITLE1=The Wheel
TTITLE2=Gimme Some Lovin
TTITLE3=Throwing Stones
TTITLE4=Not Fade Away
TTITLE5=She Belongs To Me
TTITLE6=US Blues
EXTD=
EXTT0=
EXTT1=
EXTT2=
EXTT3=
EXTT4=
EXTT5=
EXTT6=
PLAYORDER=
